# xmcd CD database file
#
# Track frame offsets:
#	150
#	25369
#	46149
#	66457
#	85274
#	105239
#	122963
#	144919
#	162097
#	181571
#	202628
#	223787
#	246967
#	264926
#	278073
#
# Disc length: 4065 seconds
#
# Revision: 1
# Processed by: cddbd v1.5.2PL0 Copyright (c) Steve Scherf et al.
# Submitted via: CDex 1.70beta2
#
DISCID=c70fdf0f
DTITLE=Various Artist - Ginkgo Garden_Wrapped In Mystery
DYEAR=2013
DGENRE=New Age
TTITLE0=Wrapped In Mystery
TTITLE1=Alone In The Dark
TTITLE2=Miracle Tree Dance
TTITLE3=Terra Arcanum - Part 1
TTITLE4=Soaring Through Dreams
TTITLE5=Lung Ching Scent
TTITLE6=Gliding Eastbound
TTITLE7=China Sky
TTITLE8=Trade Winds In The Sails
TTITLE9=Enchanted Lotus Garden
TTITLE10=Swayed By A Dream
TTITLE11=Wayfaring Man
TTITLE12=Wings Of The Morning
TTITLE13=Secret Call (piano version)
TTITLE14=Terra Arcanum - Part 2
EXTD=YEAR: 2013
EXTT0=
EXTT1=
EXTT2=
EXTT3=
EXTT4=
EXTT5=
EXTT6=
EXTT7=
EXTT8=
EXTT9=
EXTT10=
EXTT11=
EXTT12=
EXTT13=
EXTT14=
PLAYORDER=
